<?xml version="1.0" encoding="UTF-8"?>
<svg xmlns="http://www.w3.org/2000/svg" xmlns:xlink="http://www.w3.org/1999/xlink" width="150pt" height="150pt" viewBox="0 0 150 150" version="1.1">
<g id="surface1">
<path style=" stroke:none;fill-rule:nonzero;fill:rgb(0%,0%,0%);fill-opacity:1;" d="M 112.382812 29.472656 L 101.75 29.472656 L 101.75 24.15625 C 101.75 21.210938 99.359375 18.835938 96.429688 18.835938 C 93.5 18.835938 91.113281 21.226562 91.113281 24.15625 L 91.113281 29.472656 L 59.179688 29.472656 L 59.179688 24.15625 C 59.179688 21.210938 56.792969 18.835938 53.863281 18.835938 C 50.917969 18.835938 48.546875 21.226562 48.546875 24.15625 L 48.546875 29.472656 L 37.910156 29.472656 C 29.089844 29.472656 21.957031 36.621094 21.957031 45.425781 L 21.957031 119.898438 C 21.957031 128.714844 29.105469 135.851562 37.910156 135.851562 L 112.382812 135.851562 C 121.203125 135.851562 128.335938 128.703125 128.335938 119.898438 L 128.335938 45.4375 C 128.351562 36.621094 121.199219 29.472656 112.382812 29.472656 Z M 117.699219 119.910156 C 117.699219 122.855469 115.3125 125.230469 112.382812 125.230469 L 37.910156 125.230469 C 34.964844 125.230469 32.59375 122.839844 32.59375 119.910156 L 32.59375 66.722656 L 117.714844 66.722656 L 117.714844 119.914062 Z M 117.699219 56.074219 L 32.59375 56.074219 L 32.59375 45.4375 C 32.59375 42.496094 34.980469 40.121094 37.910156 40.121094 L 48.546875 40.121094 L 48.546875 45.4375 C 48.546875 48.382812 50.933594 50.757812 53.863281 50.757812 C 56.804688 50.757812 59.179688 48.367188 59.179688 45.4375 L 59.179688 40.121094 L 91.097656 40.121094 L 91.097656 45.4375 C 91.097656 48.382812 93.484375 50.757812 96.414062 50.757812 C 99.34375 50.757812 101.734375 48.367188 101.734375 45.4375 L 101.734375 40.121094 L 112.367188 40.121094 C 115.3125 40.121094 117.683594 42.507812 117.683594 45.4375 L 117.683594 56.074219 Z M 117.699219 56.074219 "/>
<path style=" stroke:none;fill-rule:nonzero;fill:rgb(0%,0%,0%);fill-opacity:1;" d="M 95.113281 86.175781 C 97.046875 83.964844 96.8125 80.59375 94.601562 78.675781 C 92.386719 76.742188 89.019531 76.976562 87.097656 79.1875 L 67.894531 101.191406 L 63.195312 95.800781 C 61.257812 93.589844 57.90625 93.355469 55.695312 95.289062 C 53.480469 97.222656 53.246094 100.578125 55.179688 102.789062 L 63.882812 112.765625 C 64.890625 113.921875 66.355469 114.578125 67.894531 114.578125 C 69.433594 114.578125 70.898438 113.921875 71.910156 112.765625 Z M 95.113281 86.175781 "/>
</g>
</svg>
